<?xml version="1.0" standalone="no"?>
<svg xmlns:xlink="http://www.w3.org/1999/xlink" id="wave" style="transform:rotate(180deg); transition: 0.3s" viewBox="0 0 1440 490" version="1.1" xmlns="http://www.w3.org/2000/svg"><defs><linearGradient id="sw-gradient-0" x1="0" x2="0" y1="1" y2="0"><stop stop-color="rgba(45.439, 255, 255, 1)" offset="0%"/><stop stop-color="rgba(216.615, 216.615, 216.615, 1)" offset="100%"/></linearGradient></defs><path style="transform:translate(0, 0px); opacity:1" fill="url(#sw-gradient-0)" d="M0,294L60,277.7C120,261,240,229,360,245C480,261,600,327,720,334.8C840,343,960,294,1080,245C1200,196,1320,147,1440,171.5C1560,196,1680,294,1800,326.7C1920,359,2040,327,2160,261.3C2280,196,2400,98,2520,81.7C2640,65,2760,131,2880,204.2C3000,278,3120,359,3240,400.2C3360,441,3480,441,3600,383.8C3720,327,3840,212,3960,204.2C4080,196,4200,294,4320,326.7C4440,359,4560,327,4680,318.5C4800,310,4920,327,5040,351.2C5160,376,5280,408,5400,351.2C5520,294,5640,147,5760,98C5880,49,6000,98,6120,138.8C6240,180,6360,212,6480,196C6600,180,6720,114,6840,98C6960,82,7080,114,7200,171.5C7320,229,7440,310,7560,334.8C7680,359,7800,327,7920,310.3C8040,294,8160,294,8280,294C8400,294,8520,294,8580,294L8640,294L8640,490L8580,490C8520,490,8400,490,8280,490C8160,490,8040,490,7920,490C7800,490,7680,490,7560,490C7440,490,7320,490,7200,490C7080,490,6960,490,6840,490C6720,490,6600,490,6480,490C6360,490,6240,490,6120,490C6000,490,5880,490,5760,490C5640,490,5520,490,5400,490C5280,490,5160,490,5040,490C4920,490,4800,490,4680,490C4560,490,4440,490,4320,490C4200,490,4080,490,3960,490C3840,490,3720,490,3600,490C3480,490,3360,490,3240,490C3120,490,3000,490,2880,490C2760,490,2640,490,2520,490C2400,490,2280,490,2160,490C2040,490,1920,490,1800,490C1680,490,1560,490,1440,490C1320,490,1200,490,1080,490C960,490,840,490,720,490C600,490,480,490,360,490C240,490,120,490,60,490L0,490Z"/><defs><linearGradient id="sw-gradient-1" x1="0" x2="0" y1="1" y2="0"><stop stop-color="rgba(0, 215.876, 223.445, 0.53)" offset="0%"/><stop stop-color="rgba(232.552, 232.552, 232.552, 1)" offset="100%"/></linearGradient></defs><path style="transform:translate(0, 50px); opacity:0.9" fill="url(#sw-gradient-1)" d="M0,98L60,138.8C120,180,240,261,360,285.8C480,310,600,278,720,285.8C840,294,960,343,1080,318.5C1200,294,1320,196,1440,171.5C1560,147,1680,196,1800,220.5C1920,245,2040,245,2160,228.7C2280,212,2400,180,2520,171.5C2640,163,2760,180,2880,212.3C3000,245,3120,294,3240,326.7C3360,359,3480,376,3600,343C3720,310,3840,229,3960,236.8C4080,245,4200,343,4320,392C4440,441,4560,441,4680,432.8C4800,425,4920,408,5040,343C5160,278,5280,163,5400,114.3C5520,65,5640,82,5760,130.7C5880,180,6000,261,6120,318.5C6240,376,6360,408,6480,367.5C6600,327,6720,212,6840,204.2C6960,196,7080,294,7200,334.8C7320,376,7440,359,7560,359.3C7680,359,7800,376,7920,359.3C8040,343,8160,294,8280,228.7C8400,163,8520,82,8580,40.8L8640,0L8640,490L8580,490C8520,490,8400,490,8280,490C8160,490,8040,490,7920,490C7800,490,7680,490,7560,490C7440,490,7320,490,7200,490C7080,490,6960,490,6840,490C6720,490,6600,490,6480,490C6360,490,6240,490,6120,490C6000,490,5880,490,5760,490C5640,490,5520,490,5400,490C5280,490,5160,490,5040,490C4920,490,4800,490,4680,490C4560,490,4440,490,4320,490C4200,490,4080,490,3960,490C3840,490,3720,490,3600,490C3480,490,3360,490,3240,490C3120,490,3000,490,2880,490C2760,490,2640,490,2520,490C2400,490,2280,490,2160,490C2040,490,1920,490,1800,490C1680,490,1560,490,1440,490C1320,490,1200,490,1080,490C960,490,840,490,720,490C600,490,480,490,360,490C240,490,120,490,60,490L0,490Z"/></svg>