<?xml version="1.0" standalone="no"?>
<svg xmlns:xlink="http://www.w3.org/1999/xlink" id="wave" style="transform:rotate(180deg); transition: 0.3s" viewBox="0 0 1440 490" version="1.1" xmlns="http://www.w3.org/2000/svg"><defs><linearGradient id="sw-gradient-0" x1="0" x2="0" y1="1" y2="0"><stop stop-color="rgba(255, 0, 0, 1)" offset="0%"/><stop stop-color="rgba(255, 179, 11, 1)" offset="100%"/></linearGradient></defs><path style="transform:translate(0, 0px); opacity:1" fill="url(#sw-gradient-0)" d="M0,441L80,416.5C160,392,320,343,480,302.2C640,261,800,229,960,253.2C1120,278,1280,359,1440,334.8C1600,310,1760,180,1920,171.5C2080,163,2240,278,2400,269.5C2560,261,2720,131,2880,122.5C3040,114,3200,229,3360,245C3520,261,3680,180,3840,179.7C4000,180,4160,261,4320,302.2C4480,343,4640,343,4800,359.3C4960,376,5120,408,5280,424.7C5440,441,5600,441,5760,416.5C5920,392,6080,343,6240,318.5C6400,294,6560,294,6720,261.3C6880,229,7040,163,7200,187.8C7360,212,7520,327,7680,351.2C7840,376,8000,310,8160,285.8C8320,261,8480,278,8640,269.5C8800,261,8960,229,9120,204.2C9280,180,9440,163,9600,204.2C9760,245,9920,343,10080,351.2C10240,359,10400,278,10560,236.8C10720,196,10880,196,11040,179.7C11200,163,11360,131,11440,114.3L11520,98L11520,490L11440,490C11360,490,11200,490,11040,490C10880,490,10720,490,10560,490C10400,490,10240,490,10080,490C9920,490,9760,490,9600,490C9440,490,9280,490,9120,490C8960,490,8800,490,8640,490C8480,490,8320,490,8160,490C8000,490,7840,490,7680,490C7520,490,7360,490,7200,490C7040,490,6880,490,6720,490C6560,490,6400,490,6240,490C6080,490,5920,490,5760,490C5600,490,5440,490,5280,490C5120,490,4960,490,4800,490C4640,490,4480,490,4320,490C4160,490,4000,490,3840,490C3680,490,3520,490,3360,490C3200,490,3040,490,2880,490C2720,490,2560,490,2400,490C2240,490,2080,490,1920,490C1760,490,1600,490,1440,490C1280,490,1120,490,960,490C800,490,640,490,480,490C320,490,160,490,80,490L0,490Z"/><defs><linearGradient id="sw-gradient-1" x1="0" x2="0" y1="1" y2="0"><stop stop-color="rgba(243, 106, 62, 1)" offset="0%"/><stop stop-color="rgba(93.668, 64.493, 0, 1)" offset="100%"/></linearGradient></defs><path style="transform:translate(0, 50px); opacity:0.9" fill="url(#sw-gradient-1)" d="M0,0L80,16.3C160,33,320,65,480,106.2C640,147,800,196,960,253.2C1120,310,1280,376,1440,383.8C1600,392,1760,343,1920,302.2C2080,261,2240,229,2400,204.2C2560,180,2720,163,2880,163.3C3040,163,3200,180,3360,171.5C3520,163,3680,131,3840,147C4000,163,4160,229,4320,285.8C4480,343,4640,392,4800,416.5C4960,441,5120,441,5280,392C5440,343,5600,245,5760,236.8C5920,229,6080,310,6240,351.2C6400,392,6560,392,6720,351.2C6880,310,7040,229,7200,204.2C7360,180,7520,212,7680,196C7840,180,8000,114,8160,114.3C8320,114,8480,180,8640,204.2C8800,229,8960,212,9120,187.8C9280,163,9440,131,9600,122.5C9760,114,9920,131,10080,114.3C10240,98,10400,49,10560,89.8C10720,131,10880,261,11040,326.7C11200,392,11360,392,11440,392L11520,392L11520,490L11440,490C11360,490,11200,490,11040,490C10880,490,10720,490,10560,490C10400,490,10240,490,10080,490C9920,490,9760,490,9600,490C9440,490,9280,490,9120,490C8960,490,8800,490,8640,490C8480,490,8320,490,8160,490C8000,490,7840,490,7680,490C7520,490,7360,490,7200,490C7040,490,6880,490,6720,490C6560,490,6400,490,6240,490C6080,490,5920,490,5760,490C5600,490,5440,490,5280,490C5120,490,4960,490,4800,490C4640,490,4480,490,4320,490C4160,490,4000,490,3840,490C3680,490,3520,490,3360,490C3200,490,3040,490,2880,490C2720,490,2560,490,2400,490C2240,490,2080,490,1920,490C1760,490,1600,490,1440,490C1280,490,1120,490,960,490C800,490,640,490,480,490C320,490,160,490,80,490L0,490Z"/></svg>